HIERARCHY
ROOT Hips
{
 OFFSET 0.000000 0.000000 0.000000
 CHANNELS 6 Xposition Yposition Zposition Yrotation Xrotation Zrotation
 JOINT Chest
 {
  OFFSET 0.000000 9.585900 0.002600
  CHANNELS 3 Yrotation Xrotation Zrotation
  JOINT Chest2
  {
   OFFSET 0.000000 9.601200 -0.005300
   CHANNELS 3 Yrotation Xrotation Zrotation
   JOINT Chest3
   {
    OFFSET 0.000000 9.561800 0.000000
    CHANNELS 3 Yrotation Xrotation Zrotation
    JOINT Chest4
    {
     OFFSET 0.000000 9.552100 0.000000
     CHANNELS 3 Yrotation Xrotation Zrotation
     JOINT Neck
     {
      OFFSET 0.000000 14.453000 0.000000
      CHANNELS 3 Yrotation Xrotation Zrotation
      JOINT Head
      {
       OFFSET 0.000000 8.936500 -0.011300
       CHANNELS 3 Yrotation Xrotation Zrotation
       End Site
       {
        OFFSET 0.000000 17.073600 -0.006000
       }
      }
     }
     JOINT RightCollar
     {
      OFFSET -2.921100 9.558500 0.000000
      CHANNELS 3 Yrotation Xrotation Zrotation
      JOINT RightShoulder
      {
       OFFSET -13.519700 0.000000 0.000000
       CHANNELS 3 Yrotation Xrotation Zrotation
       JOINT RightElbow
       {
        OFFSET 0.000000 -29.696600 0.000000
        CHANNELS 3 Yrotation Xrotation Zrotation
        JOINT RightWrist
        {
         OFFSET 0.000000 -24.004700 0.000000
         CHANNELS 3 Yrotation Xrotation Zrotation
         End Site
         {
          OFFSET 0.000000 -17.728500 0.000000
         }
        }
       }
      }
     }
     JOINT LeftCollar
     {
      OFFSET 2.921100 9.558500 0.000000
      CHANNELS 3 Yrotation Xrotation Zrotation
      JOINT LeftShoulder
      {
       OFFSET 13.519700 0.000000 0.000000
       CHANNELS 3 Yrotation Xrotation Zrotation
       JOINT LeftElbow
       {
        OFFSET 0.000000 -29.696600 0.000000
        CHANNELS 3 Yrotation Xrotation Zrotation
        JOINT LeftWrist
        {
         OFFSET 0.000000 -24.004700 0.000000
         CHANNELS 3 Yrotation Xrotation Zrotation
         End Site
         {
          OFFSET 0.000000 -17.728500 0.000000
         }
        }
       }
      }
     }
    }
   }
  }
 }
 JOINT RightHip
 {
  OFFSET -7.771700 -0.012900 -0.001300
  CHANNELS 3 Yrotation Xrotation Zrotation
  JOINT RightKnee
  {
   OFFSET 0.000000 -40.869800 0.001200
   CHANNELS 3 Yrotation Xrotation Zrotation
   JOINT RightAnkle
   {
    OFFSET 0.000000 -39.717900 0.002100
    CHANNELS 3 Yrotation Xrotation Zrotation
    JOINT RightToe
    {
     OFFSET 0.000000 -4.965400 11.033500
     CHANNELS 3 Yrotation Xrotation Zrotation
     End Site
     {
      OFFSET 0.000000 -1.423100 5.872300
     }
    }
   }
  }
 }
 JOINT LeftHip
 {
  OFFSET 7.771700 -0.012900 -0.001300
  CHANNELS 3 Yrotation Xrotation Zrotation
  JOINT LeftKnee
  {
   OFFSET 0.000000 -40.869800 0.001200
   CHANNELS 3 Yrotation Xrotation Zrotation
   JOINT LeftAnkle
   {
    OFFSET 0.000000 -39.717900 0.002100
    CHANNELS 3 Yrotation Xrotation Zrotation
    JOINT LeftToe
    {
     OFFSET 0.000000 -4.965400 11.033500
     CHANNELS 3 Yrotation Xrotation Zrotation
     End Site
     {
      OFFSET 0.000000 -1.423100 5.872300
     }
    }
   }
  }
 }
}
MOTION
Frames: 9
Frame Time: 0.008333
-213.572446 57.249142 -69.989494 157.780720 -13.761921 0.866486 4.398573 13.420321 0.518528 0.341429 1.137875 -0.049261 0.583203 1.953885 -0.081887 3.680025 12.198602 -0.233344 5.355228 16.405349 -1.625830 10.438326 -4.975556 -4.785582 3.886587 5.856279 -3.704142 -0.657686 -21.195147 -18.211251 -175.062450 -72.786549 -168.149493 -1.985008 2.163412 -28.023467 -9.926770 6.569832 2.077534 14.671770 -24.382858 6.327639 131.353845 -64.772658 -162.567989 -3.386831 2.822854 -1.913311 -7.187046 -58.903123 4.704785 -34.854223 70.823828 -37.619200 -5.193110 -5.868491 0.813681 -0.752783 0.960694 -0.311153 1.038528 -61.042970 16.571659 42.328479 65.645176 36.054422 -17.866090 -10.907017 3.744421 0.212115 -0.933820 0.088556
-213.571828 57.245079 -69.986496 157.749756 -13.862462 0.874437 4.375681 13.427350 0.547382 0.380057 1.213097 -0.074282 0.568566 1.949835 -0.068884 3.683000 12.234181 -0.236920 5.349786 16.427397 -1.614361 10.455112 -4.950147 -4.806227 3.885571 5.916478 -3.709631 -0.896364 -21.385337 -18.110684 -174.682784 -72.279653 -168.437471 -1.978648 2.236878 -27.979142 -9.949234 6.605409 2.101272 14.899479 -24.488442 6.381017 131.576248 -64.334494 -162.905851 -3.343400 2.765087 -2.015900 -7.149614 -58.810476 4.705150 -34.851333 70.815923 -37.645428 -5.197270 -5.847150 0.820444 -0.759456 0.952146 -0.311048 1.068798 -60.947415 16.588906 42.340516 65.661769 36.042700 -17.823170 -10.911655 3.767736 0.159724 -0.937002 0.076900
-213.569677 57.241399 -69.983081 157.728943 -13.965005 0.867573 4.385073 13.505814 0.573935 0.340243 1.160789 -0.043852 0.595421 2.002108 -0.086268 3.685153 12.270330 -0.241197 5.322743 16.478661 -1.569172 10.484195 -4.946715 -4.876760 3.882707 5.975285 -3.714851 -1.128034 -21.547758 -17.990454 -174.347009 -71.789423 -168.684363 -1.971403 2.316720 -27.949402 -9.967606 6.641348 2.125423 15.121730 -24.582230 6.420392 131.771883 -63.911447 -163.219529 -3.303407 2.707564 -2.107211 -7.136909 -58.713136 4.719044 -34.834851 70.815298 -37.643469 -5.219424 -5.831077 0.819540 -0.753836 0.944132 -0.312308 1.090518 -60.857467 16.626906 42.291582 65.693471 35.992204 -17.843614 -10.905346 3.776944 0.161470 -0.945872 0.079635
-213.570967 57.237753 -69.979767 157.720917 -14.061607 0.873734 4.379525 13.579668 0.584414 0.339907 1.165011 -0.043569 0.585735 1.996550 -0.073620 3.668917 12.315562 -0.224000 5.327602 16.484941 -1.593639 10.477303 -4.909900 -4.890439 3.889405 6.027018 -3.747088 -1.342159 -21.678487 -17.848173 -174.107512 -71.311890 -168.852406 -1.965883 2.398773 -27.943147 -9.967012 6.668081 2.128826 15.339630 -24.667287 6.443263 131.951132 -63.500270 -163.521211 -3.268280 2.650996 -2.186130 -7.106522 -58.620735 4.692135 -34.814083 70.815255 -37.627935 -5.237625 -5.833848 0.810922 -0.743056 0.953887 -0.303560 1.119674 -60.766822 16.625114 42.266255 65.706236 35.961836 -17.856409 -10.906311 3.783394 0.158776 -0.945727 0.080295
-213.572854 57.233783 -69.974347 157.721572 -14.146615 0.872981 4.333447 13.573624 0.618815 0.370366 1.237423 -0.071012 0.578989 1.989751 -0.060407 3.641294 12.364710 -0.176290 5.340215 16.477280 -1.669447 10.446547 -4.819806 -4.854136 3.898032 6.080735 -3.814216 -1.534081 -21.778109 -17.684074 -173.963195 -70.844349 -168.951034 -1.963120 2.478679 -27.960380 -9.952825 6.690328 2.100607 15.547545 -24.742284 6.454298 132.134307 -63.101340 -163.824675 -3.236392 2.593354 -2.258368 -7.096992 -58.544321 4.685112 -34.828968 70.814973 -37.649039 -5.261239 -5.830989 0.799171 -0.724849 0.954360 -0.296697 1.135627 -60.689071 16.631722 42.247039 65.716835 35.933907 -17.867710 -10.913301 3.783618 0.152727 -0.937659 0.091092
-213.575971 57.229602 -69.967741 157.710438 -14.224020 0.875757 4.333846 13.627902 0.631856 0.364501 1.223916 -0.059844 0.575591 1.997961 -0.056879 3.649892 12.397829 -0.188866 5.325114 16.516220 -1.611398 10.445508 -4.783041 -4.893019 3.889217 6.114683 -3.819559 -1.721672 -21.812572 -17.494044 -173.876424 -70.386493 -169.012099 -1.961890 2.554424 -28.002902 -9.959152 6.746637 2.134460 15.749627 -24.806746 6.454687 132.321761 -62.717561 -164.132908 -3.206451 2.529144 -2.326097 -7.071331 -58.475034 4.672329 -34.817206 70.813054 -37.640097 -5.292390 -5.822734 0.788344 -0.713961 0.955741 -0.293082 1.164570 -60.619541 16.636118 42.225757 65.728403 35.906081 -17.884528 -10.914546 3.794106 0.155602 -0.932768 0.094341
-213.575774 57.227234 -69.966850 157.686911 -14.344484 0.872701 4.346510 13.723543 0.656909 0.353332 1.206968 -0.048773 0.580814 2.009050 -0.052676 3.642264 12.433670 -0.171680 5.320784 16.538494 -1.603424 10.446302 -4.751768 -4.912145 3.891689 6.151350 -3.858526 -1.897915 -21.821881 -17.286570 -173.814935 -69.940150 -169.056522 -1.962086 2.619200 -28.071738 -9.950660 6.801895 2.133273 15.948689 -24.861108 6.443331 132.514385 -62.348245 -164.447006 -3.177087 2.462210 -2.388952 -7.040144 -58.360307 4.668517 -34.801472 70.812119 -37.629389 -5.331055 -5.800823 0.779767 -0.686418 0.941426 -0.290674 1.188528 -60.505643 16.659183 42.192988 65.744202 35.878422 -17.903725 -10.914591 3.793709 0.123812 -0.940721 0.088172
-213.577942 57.225116 -69.967151 157.735458 -14.471136 0.863930 4.265201 13.753173 0.694554 0.356673 1.230956 -0.050204 0.591839 2.052276 -0.066850 3.620802 12.469130 -0.126666 5.323749 16.555260 -1.633921 10.448340 -4.721534 -4.914357 3.871567 6.288527 -3.910467 -2.033893 -21.905548 -17.079595 -173.758109 -69.506988 -169.097989 -1.966402 2.661741 -28.156005 -9.932922 6.859361 2.098817 16.143524 -24.906178 6.422362 132.715231 -61.989016 -164.767391 -3.145497 2.404451 -2.446720 -7.057041 -58.239877 4.633741 -34.792455 70.811316 -37.621523 -5.408210 -5.726803 0.746211 -0.605050 0.874558 -0.251816 1.165632 -60.387531 16.655236 42.164708 65.755450 35.841245 -17.893159 -10.969281 3.795606 0.126982 -0.891612 0.088560
-213.583075 57.221868 -69.963200 157.733862 -14.570607 0.870826 4.248196 13.807483 0.706652 0.352478 1.227248 -0.043501 0.599921 2.079698 -0.073027 3.600326 12.494405 -0.094569 5.331480 16.570567 -1.642922 10.457070 -4.693515 -4.909015 3.865071 6.388766 -3.945834 -2.173953 -21.924747 -16.855115 -173.688381 -69.091033 -169.154317 -1.976571 2.680745 -28.242428 -9.917428 6.929854 2.078632 16.334090 -24.945806 6.392307 132.920418 -61.643088 -165.087945 -3.111905 2.357987 -2.502313 -7.037549 -58.152215 4.608367 -34.794675 70.816272 -37.630387 -5.425829 -5.717547 0.739839 -0.590043 0.868135 -0.248975 1.186450 -60.292439 16.645743 42.168364 65.757046 35.828709 -17.875922 -10.965553 3.809673 0.102376 -0.893849 0.084586
